# xmcd
#
# Track frame offsets:
#	150
#	16149
#	36928
#	57352
#	75264
#	97997
#	121739
#	132342
#
# Disc length: 1940 seconds
# Revision: 0
# Processed by: cddbd v1.5.2PL0 Copyright (c) Steve Scherf et al.
# Submitted via: dBpowerAMP V12.0
#
DISCID=56079208
DTITLE=Toni Swain - The Red Shed
DYEAR=2014
DGENRE=Blues Country
TTITLE0=Open Up
TTITLE1=Faded To Grey
TTITLE2=The Knot
TTITLE3=Hold On To Your Horses
TTITLE4=50 Bucks
TTITLE5=Naturally
TTITLE6=Buddy's Got Some Steel
TTITLE7=Saving Face
EXTD=
EXTT0=
EXTT1=
EXTT2=
EXTT3=
EXTT4=
EXTT5=
EXTT6=
EXTT7=
PLAYORDER=
